<?xml version="1.0" encoding="utf-8"?>
<svg version="1.1" id="Ebene_1" xmlns="http://www.w3.org/2000/svg" xmlns:xlink="http://www.w3.org/1999/xlink" x="0px" y="0px"
	 viewBox="0 0 50 14" style="enable-background:new 0 0 50 14;" xml:space="preserve">
<g>
	<path fill="#00A1E7" d="M10.8,2.9c0-0.1,0.1-0.2,0.2-0.2h5.1c0.1,0,0.2,0.1,0.2,0.2v1c0,0.1-0.1,0.2-0.2,0.2h-3.7v2.1h3.1
		c0.1,0,0.2,0.1,0.2,0.2v1c0,0.1-0.1,0.2-0.2,0.2h-3.1V10h3.7c0.1,0,0.2,0.1,0.2,0.2v1c0,0.1-0.1,0.2-0.2,0.2H11
		c-0.1,0-0.2-0.1-0.2-0.2V2.9z"/>
	<path fill="#43CC3C" d="M22.1,2.5c2.5,0,4.6,2,4.6,4.6c0,2.5-2,4.5-4.6,4.5c-2.5,0-4.5-2-4.5-4.5C17.6,4.6,19.6,2.5,22.1,2.5z
		 M22.1,10c1.6,0,2.9-1.3,2.9-2.9s-1.3-2.9-2.9-2.9c-1.6,0-2.9,1.3-2.9,2.9S20.6,10,22.1,10z"/>
	<path fill="#EB0143" d="M0,0l6.6,8.4h0V3c0-0.2,0.1-0.3,0.3-0.3h1.3c0.1,0,0.3,0.2,0.3,0.3l0,11L1.9,5.3h0v5.9c0,0.2-0.1,0.3-0.3,0.3
		H0.3c-0.1,0-0.3-0.2-0.3-0.3L0,0z"/>
	<path fill="#ffffff" d="M31.9,3.5c0-0.1,0.1-0.2,0.2-0.2h2.5c1.4,0,2.3,0.8,2.3,1.9c0,0.8-0.6,1.4-1.1,1.7c0.6,0.2,1.4,0.8,1.4,1.7
		c0,1.2-1,2-2.5,2h-2.6c-0.1,0-0.2-0.1-0.2-0.2V3.5z M34.8,10c0.8,0,1.4-0.6,1.4-1.3c0-0.8-0.7-1.3-1.6-1.3h-1.9V10H34.8z M34.6,6.6
		c0.9,0,1.4-0.6,1.4-1.3C36,4.6,35.5,4,34.6,4h-1.9v2.6H34.6z"/>
	<path fill="#ffffff" d="M38.6,3.5c0-0.1,0.1-0.2,0.2-0.2h4.5c0.1,0,0.2,0.1,0.2,0.2v0.3c0,0.1-0.1,0.2-0.2,0.2h-3.8v2.6h3.3
		c0.1,0,0.2,0.1,0.2,0.2v0.3c0,0.1-0.1,0.2-0.2,0.2h-3.3V10h3.8c0.1,0,0.2,0.1,0.2,0.2v0.3c0,0.1-0.1,0.2-0.2,0.2h-4.5
		c-0.1,0-0.2-0.1-0.2-0.2V3.5z"/>
	<path fill="#ffffff" d="M46.9,4h-2c-0.1,0-0.2-0.1-0.2-0.2V3.5c0-0.1,0.1-0.2,0.2-0.2h4.8c0.1,0,0.2,0.1,0.2,0.2v0.3
		C50,3.9,49.9,4,49.8,4h-2v6.5c0,0.1-0.1,0.2-0.2,0.2h-0.4c-0.1,0-0.2-0.1-0.2-0.2V4z"/>
	<circle fill="#ffffff" cx="29.3" cy="7.2" r="0.8"/>
</g>
</svg>
